{
  "accessors": [
    {
      "bufferView": 2,
      "componentType": 5126,
      "count": 65532,
      "max": [
        31.127412796020508,
        30.586639404296875,
        25.74000358581543
      ],
      "min": [
        -27.321283340454102,
        -27.524290084838867,
        -19.833038330078125
      ],
      "type": "VEC3"
    },
    {
      "bufferView": 2,
      "byteOffset": 786384,
      "componentType": 5126,
      "count": 65532,
      "max": [
        0.9999624490737915,
        1,
        0.99990874528884888
      ],
      "min": [
        -0.9999384880065918,
        -1,
        -0.9999847412109375
      ],
      "type": "VEC3"
    },
    {
      "bufferView": 3,
      "componentType": 5126,
      "count": 65532,
      "max": [
        0,
        0,
        0,
        1
      ],
      "min": [
        0,
        0,
        0,
        1
      ],
      "type": "VEC4"
    },
    {
      "bufferView": 3,
      "byteOffset": 1048512,
      "componentType": 5126,
      "count": 65532,
      "max": [
        1,
        1,
        1,
        1
      ],
      "min": [
        0,
        0,
        0,
        1
      ],
      "type": "VEC4"
    },
    {
      "bufferView": 1,
      "componentType": 5126,
      "count": 65532,
      "max": [
        0,
        0
      ],
      "min": [
        0,
        0
      ],
      "type": "VEC2"
    },
    {
      "bufferView": 0,
      "componentType": 5125,
      "count": 69144,
      "max": [
        65531
      ],
      "min": [
        0
      ],
      "type": "SCALAR"
    },
    {
      "bufferView": 2,
      "byteOffset": 1572768,
      "componentType": 5126,
      "count": 65534,
      "max": [
        24.656534194946289,
        30.331111907958984,
        16.258712768554688
      ],
      "min": [
        -21.25079345703125,
        -25.354389190673828,
        -25.516817092895508
      ],
      "type": "VEC3"
    },
    {
      "bufferView": 2,
      "byteOffset": 2359176,
      "componentType": 5126,
      "count": 65534,
      "max": [
        0.99994373321533203,
        0.99999833106994629,
        0.99980992078781128
      ],
      "min": [
        -0.99989742040634155,
        -0.99997115135192871,
        -0.99996262788772583
      ],
      "type": "VEC3"
    },
    {
      "bufferView": 3,
      "byteOffset": 2097024,
      "componentType": 5126,
      "count": 65534,
      "max": [
        0,
        0,
        0,
        1
      ],
      "min": [
        0,
        0,
        0,
        1
      ],
      "type": "VEC4"
    },
    {
      "bufferView": 3,
      "byteOffset": 3145568,
      "componentType": 5126,
      "count": 65534,
      "max": [
        1,
        1,
        1,
        1
      ],
      "min": [
        0,
        0,
        0,
        1
      ],
      "type": "VEC4"
    },
    {
      "bufferView": 1,
      "byteOffset": 524256,
      "componentType": 5126,
      "count": 65534,
      "max": [
        0,
        0
      ],
      "min": [
        0,
        0
      ],
      "type": "VEC2"
    },
    {
      "bufferView": 0,
      "byteOffset": 276576,
      "componentType": 5125,
      "count": 65556,
      "max": [
        65533
      ],
      "min": [
        0
      ],
      "type": "SCALAR"
    },
    {
      "bufferView": 2,
      "byteOffset": 3145584,
      "componentType": 5126,
      "count": 65533,
      "max": [
        14.647156715393066,
        18.023635864257812,
        21.535188674926758
      ],
      "min": [
        -27.2698974609375,
        -32.349620819091797,
        -24.11454963684082
      ],
      "type": "VEC3"
    },
    {
      "bufferView": 2,
      "byteOffset": 3931980,
      "componentType": 5126,
      "count": 65533,
      "max": [
        0.99997216463088989,
        0.99977922439575195,
        0.99996209144592285
      ],
      "min": [
        -0.99998098611831665,
        -0.99988842010498047,
        -0.99966645240783691
      ],
      "type": "VEC3"
    },
    {
      "bufferView": 3,
      "byteOffset": 4194112,
      "componentType": 5126,
      "count": 65533,
      "max": [
        0,
        0,
        0,
        1
      ],
      "min": [
        0,
        0,
        0,
        1
      ],
      "type": "VEC4"
    },
    {
      "bufferView": 3,
      "byteOffset": 5242640,
      "componentType": 5126,
      "count": 65533,
      "max": [
        1,
        1,
        1,
        1
      ],
      "min": [
        0,
        0,
        0,
        1
      ],
      "type": "VEC4"
    },
    {
      "bufferView": 1,
      "byteOffset": 1048528,
      "componentType": 5126,
      "count": 65533,
      "max": [
        0,
        0
      ],
      "min": [
        0,
        0
      ],
      "type": "VEC2"
    },
    {
      "bufferView": 0,
      "byteOffset": 538800,
      "componentType": 5125,
      "count": 65547,
      "max": [
        65532
      ],
      "min": [
        0
      ],
      "type": "SCALAR"
    },
    {
      "bufferView": 2,
      "byteOffset": 4718376,
      "componentType": 5126,
      "count": 65532,
      "max": [
        15.38585376739502,
        18.231000900268555,
        25.257484436035156
      ],
      "min": [
        -33.322700500488281,
        -27.668588638305664,
        -26.892950057983398
      ],
      "type": "VEC3"
    },
    {
      "bufferView": 2,
      "byteOffset": 5504760,
      "componentType": 5126,
      "count": 65532,
      "max": [
        0.99954301118850708,
        0.99991041421890259,
        0.99991714954376221
      ],
      "min": [
        -0.99992388486862183,
        -0.99992221593856812,
        -0.99998766183853149
      ],
      "type": "VEC3"
    },
    {
      "bufferView": 3,
      "byteOffset": 6291168,
      "componentType": 5126,
      "count": 65532,
      "max": [
        0,
        0,
        0,
        1
      ],
      "min": [
        0,
        0,
        0,
        1
      ],
      "type": "VEC4"
    },
    {
      "bufferView": 3,
      "byteOffset": 7339680,
      "componentType": 5126,
      "count": 65532,
      "max": [
        1,
        1,
        1,
        1
      ],
      "min": [
        0,
        0,
        0,
        1
      ],
      "type": "VEC4"
    },
    {
      "bufferView": 1,
      "byteOffset": 1572792,
      "componentType": 5126,
      "count": 65532,
      "max": [
        0,
        0
      ],
      "min": [
        0,
        0
      ],
      "type": "VEC2"
    },
    {
      "bufferView": 0,
      "byteOffset": 800988,
      "componentType": 5125,
      "count": 80820,
      "max": [
        65531
      ],
      "min": [
        0
      ],
      "type": "SCALAR"
    },
    {
      "bufferView": 2,
      "byteOffset": 6291144,
      "componentType": 5126,
      "count": 65532,
      "max": [
        12.517932891845703,
        12.551528930664062,
        25.46934700012207
      ],
      "min": [
        -16.779695510864258,
        -27.843349456787109,
        -27.051555633544922
      ],
      "type": "VEC3"
    },
    {
      "bufferView": 2,
      "byteOffset": 7077528,
      "componentType": 5126,
      "count": 65532,
      "max": [
        0.98943835496902466,
        0.9999045729637146,
        0.99994248151779175
      ],
      "min": [
        -0.99032336473464966,
        -0.99987030029296875,
        -0.99994486570358276
      ],
      "type": "VEC3"
    },
    {
      "bufferView": 3,
      "byteOffset": 8388192,
      "componentType": 5126,
      "count": 65532,
      "max": [
        0,
        0,
        0,
        1
      ],
      "min": [
        0,
        0,
        0,
        1
      ],
      "type": "VEC4"
    },
    {
      "bufferView": 3,
      "byteOffset": 9436704,
      "componentType": 5126,
      "count": 65532,
      "max": [
        1,
        0.40000000596046448,
        0.97647058963775635,
        1
      ],
      "min": [
        0.18039216101169586,
        0.047058824449777603,
        0.047058824449777603,
        1
      ],
      "type": "VEC4"
    },
    {
      "bufferView": 1,
      "byteOffset": 2097048,
      "componentType": 5126,
      "count": 65532,
      "max": [
        0,
        0
      ],
      "min": [
        0,
        0
      ],
      "type": "VEC2"
    },
    {
      "bufferView": 0,
      "byteOffset": 1124268,
      "componentType": 5125,
      "count": 86298,
      "max": [
        65531
      ],
      "min": [
        0
      ],
      "type": "SCALAR"
    },
    {
      "bufferView": 2,
      "byteOffset": 7863912,
      "componentType": 5126,
      "count": 65532,
      "max": [
        15.213977813720703,
        18.263626098632812,
        25.483495712280273
      ],
      "min": [
        -22.616724014282227,
        -3.1920969486236572,
        -21.474615097045898
      ],
      "type": "VEC3"
    },
    {
      "bufferView": 2,
      "byteOffset": 8650296,
      "componentType": 5126,
      "count": 65532,
      "max": [
        0.98961704969406128,
        0.99990475177764893,
        0.99996644258499146
      ],
      "min": [
        -0.98956871032714844,
        -0.99972367286682129,
        -0.99995112419128418
      ],
      "type": "VEC3"
    },
    {
      "bufferView": 3,
      "byteOffset": 10485216,
      "componentType": 5126,
      "count": 65532,
      "max": [
        0,
        0,
        0,
        1
      ],
      "min": [
        0,
        0,
        0,
        1
      ],
      "type": "VEC4"
    },
    {
      "bufferView": 3,
      "byteOffset": 11533728,
      "componentType": 5126,
      "count": 65532,
      "max": [
        1,
        0.40000000596046448,
        0.97647058963775635,
        1
      ],
      "min": [
        0.18039216101169586,
        0.050980392843484879,
        0.050980392843484879,
        1
      ],
      "type": "VEC4"
    },
    {
      "bufferView": 1,
      "byteOffset": 2621304,
      "componentType": 5126,
      "count": 65532,
      "max": [
        0,
        0
      ],
      "min": [
        0,
        0
      ],
      "type": "VEC2"
    },
    {
      "bufferView": 0,
      "byteOffset": 1469460,
      "componentType": 5125,
      "count": 86688,
      "max": [
        65531
      ],
      "min": [
        0
      ],
      "type": "SCALAR"
    },
    {
      "bufferView": 2,
      "byteOffset": 9436680,
      "componentType": 5126,
      "count": 65533,
      "max": [
        15.404243469238281,
        12.872966766357422,
        20.74989128112793
      ],
      "min": [
        -21.665529251098633,
        -25.904102325439453,
        -23.824846267700195
      ],
      "type": "VEC3"
    },
    {
      "bufferView": 2,
      "byteOffset": 10223076,
      "componentType": 5126,
      "count": 65533,
      "max": [
        0.98964875936508179,
        0.99989396333694458,
        0.99994492530822754
      ],
      "min": [
        -0.99013066291809082,
        -0.99979466199874878,
        -0.99978882074356079
      ],
      "type": "VEC3"
    },
    {
      "bufferView": 3,
      "byteOffset": 12582240,
      "componentType": 5126,
      "count": 65533,
      "max": [
        0,
        0,
        0,
        1
      ],
      "min": [
        0,
        0,
        0,
        1
      ],
      "type": "VEC4"
    },
    {
      "bufferView": 3,
      "byteOffset": 13630768,
      "componentType": 5126,
      "count": 65533,
      "max": [
        0.21960784494876862,
        0.30980393290519714,
        0.97647058963775635,
        1
      ],
      "min": [
        0.18039216101169586,
        0.21568627655506134,
        0.21568627655506134,
        1
      ],
      "type": "VEC4"
    },
    {
      "bufferView": 1,
      "byteOffset": 3145560,
      "componentType": 5126,
      "count": 65533,
      "max": [
        0,
        0
      ],
      "min": [
        0,
        0
      ],
      "type": "VEC2"
    },
    {
      "bufferView": 0,
      "byteOffset": 1816212,
      "componentType": 5125,
      "count": 86355,
      "max": [
        65532
      ],
      "min": [
        0
      ],
      "type": "SCALAR"
    },
    {
      "bufferView": 2,
      "byteOffset": 11009472,
      "componentType": 5126,
      "count": 65533,
      "max": [
        30.989374160766602,
        30.586639404296875,
        25.591405868530273
      ],
      "min": [
        -31.54203987121582,
        -30.89128303527832,
        -25.205957412719727
      ],
      "type": "VEC3"
    },
    {
      "bufferView": 2,
      "byteOffset": 11795868,
      "componentType": 5126,
      "count": 65533,
      "max": [
        0.9999767541885376,
        0.99989897012710571,
        0.99998587369918823
      ],
      "min": [
        -0.99983793497085571,
        -0.99997860193252563,
        -0.99998587369918823
      ],
      "type": "VEC3"
    },
    {
      "bufferView": 3,
      "byteOffset": 14679296,
      "componentType": 5126,
      "count": 65533,
      "max": [
        0,
        0,
        0,
        1
      ],
      "min": [
        0,
        0,
        0,
        1
      ],
      "type": "VEC4"
    },
    {
      "bufferView": 3,
      "byteOffset": 15727824,
      "componentType": 5126,
      "count": 65533,
      "max": [
        1,
        1,
        1,
        1
      ],
      "min": [
        0,
        0,
        0,
        1
      ],
      "type": "VEC4"
    },
    {
      "bufferView": 1,
      "byteOffset": 3669824,
      "componentType": 5126,
      "count": 65533,
      "max": [
        0,
        0
      ],
      "min": [
        0,
        0
      ],
      "type": "VEC2"
    },
    {
      "bufferView": 0,
      "byteOffset": 2161632,
      "componentType": 5125,
      "count": 101811,
      "max": [
        65532
      ],
      "min": [
        0
      ],
      "type": "SCALAR"
    },
    {
      "bufferView": 2,
      "byteOffset": 12582264,
      "componentType": 5126,
      "count": 65534,
      "max": [
        28.107927322387695,
        30.331111907958984,
        25.433477401733398
      ],
      "min": [
        -33.18463134765625,
        -32.293758392333984,
        -27.051555633544922
      ],
      "type": "VEC3"
    },
    {
      "bufferView": 2,
      "byteOffset": 13368672,
      "componentType": 5126,
      "count": 65534,
      "max": [
        0.99971854686737061,
        0.99981892108917236,
        0.99961769580841064
      ],
      "min": [
        -0.99899429082870483,
        -0.9999043345451355,
        -0.99952846765518188
      ],
      "type": "VEC3"
    },
    {
      "bufferView": 3,
      "byteOffset": 16776352,
      "componentType": 5126,
      "count": 65534,
      "max": [
        0,
        0,
        0,
        1
      ],
      "min": [
        0,
        0,
        0,
        1
      ],
      "type": "VEC4"
    },
    {
      "bufferView": 3,
      "byteOffset": 17824896,
      "componentType": 5126,
      "count": 65534,
      "max": [
        1,
        1,
        1,
        1
      ],
      "min": [
        0,
        0,
        0,
        1
      ],
      "type": "VEC4"
    },
    {
      "bufferView": 1,
      "byteOffset": 4194088,
      "componentType": 5126,
      "count": 65534,
      "max": [
        0,
        0
      ],
      "min": [
        0,
        0
      ],
      "type": "VEC2"
    },
    {
      "bufferView": 0,
      "byteOffset": 2568876,
      "componentType": 5125,
      "count": 68100,
      "max": [
        65533
      ],
      "min": [
        0
      ],
      "type": "SCALAR"
    },
    {
      "bufferView": 2,
      "byteOffset": 14155080,
      "componentType": 5126,
      "count": 31255,
      "max": [
        15.404243469238281,
        18.255746841430664,
        25.473991394042969
      ],
      "min": [
        -21.628156661987305,
        -25.89497184753418,
        -23.824846267700195
      ],
      "type": "VEC3"
    },
    {
      "bufferView": 2,
      "byteOffset": 14530140,
      "componentType": 5126,
      "count": 31255,
      "max": [
        0.99004262685775757,
        0.99983906745910645,
        0.99955451488494873
      ],
      "min": [
        -0.98946136236190796,
        -0.9999045729637146,
        -0.99955511093139648
      ],
      "type": "VEC3"
    },
    {
      "bufferView": 3,
      "byteOffset": 18873440,
      "componentType": 5126,
      "count": 31255,
      "max": [
        0,
        0,
        0,
        1
      ],
      "min": [
        0,
        0,
        0,
        1
      ],
      "type": "VEC4"
    },
    {
      "bufferView": 3,
      "byteOffset": 19373520,
      "componentType": 5126,
      "count": 31255,
      "max": [
        1,
        1,
        1,
        1
      ],
      "min": [
        0.18039216101169586,
        0.050980392843484879,
        0.050980392843484879,
        1
      ],
      "type": "VEC4"
    },
    {
      "bufferView": 1,
      "byteOffset": 4718360,
      "componentType": 5126,
      "count": 31255,
      "max": [
        0,
        0
      ],
      "min": [
        0,
        0
      ],
      "type": "VEC2"
    },
    {
      "bufferView": 0,
      "byteOffset": 2841276,
      "componentType": 5125,
      "count": 31257,
      "max": [
        31254
      ],
      "min": [
        0
      ],
      "type": "SCALAR"
    }
  ],
  "asset": {
    "extras": {
      "author": "DesignMakeTeach (https://sketchfab.com/DesignMakeTeach)",
      "license": "CC-BY-4.0 (http://creativecommons.org/licenses/by/4.0/)",
      "source": "https://sketchfab.com/3d-models/3w4u-assembly-1-ribbon-rainbow-e86594911f3e40d6a81b25019001c2b8",
      "title": "3w4u-assembly-1-ribbon-rainbow"
    },
    "generator": "Sketchfab-6.48.0",
    "version": "2.0"
  },
  "bufferViews": [
    {
      "buffer": 0,
      "byteLength": 2966304,
      "byteOffset": 0,
      "name": "floatBufferViews",
      "target": 34963
    },
    {
      "buffer": 0,
      "byteLength": 4968400,
      "byteOffset": 2966304,
      "byteStride": 8,
      "name": "floatBufferViews",
      "target": 34962
    },
    {
      "buffer": 0,
      "byteLength": 14905200,
      "byteOffset": 7934704,
      "byteStride": 12,
      "name": "floatBufferViews",
      "target": 34962
    },
    {
      "buffer": 0,
      "byteLength": 19873600,
      "byteOffset": 22839904,
      "byteStride": 16,
      "name": "floatBufferViews",
      "target": 34962
    }
  ],
  "buffers": [
    {
      "byteLength": 42713504,
      "uri": "scene.bin"
    }
  ],
  "materials": [
    {
      "doubleSided": true,
      "emissiveFactor": [
        0,
        0,
        0
      ],
      "name": "material_0",
      "pbrMetallicRoughness": {
        "baseColorFactor": [
          0.80000000000000004,
          0.80000000000000004,
          0.80000000000000004,
          1
        ],
        "metallicFactor": 0,
        "roughnessFactor": 0.59999999999999998
      }
    }
  ],
  "meshes": [
    {
      "primitives": [
        {
          "attributes": {
            "COLOR_0": 3,
            "NORMAL": 1,
            "POSITION": 0,
            "TANGENT": 2,
            "TEXCOORD_0": 4
          },
          "indices": 5,
          "material": 0,
          "mode": 4
        }
      ]
    },
    {
      "primitives": [
        {
          "attributes": {
            "COLOR_0": 9,
            "NORMAL": 7,
            "POSITION": 6,
            "TANGENT": 8,
            "TEXCOORD_0": 10
          },
          "indices": 11,
          "material": 0,
          "mode": 4
        }
      ]
    },
    {
      "primitives": [
        {
          "attributes": {
            "COLOR_0": 15,
            "NORMAL": 13,
            "POSITION": 12,
            "TANGENT": 14,
            "TEXCOORD_0": 16
          },
          "indices": 17,
          "material": 0,
          "mode": 4
        }
      ]
    },
    {
      "primitives": [
        {
          "attributes": {
            "COLOR_0": 21,
            "NORMAL": 19,
            "POSITION": 18,
            "TANGENT": 20,
            "TEXCOORD_0": 22
          },
          "indices": 23,
          "material": 0,
          "mode": 4
        }
      ]
    },
    {
      "primitives": [
        {
          "attributes": {
            "COLOR_0": 27,
            "NORMAL": 25,
            "POSITION": 24,
            "TANGENT": 26,
            "TEXCOORD_0": 28
          },
          "indices": 29,
          "material": 0,
          "mode": 4
        }
      ]
    },
    {
      "primitives": [
        {
          "attributes": {
            "COLOR_0": 33,
            "NORMAL": 31,
            "POSITION": 30,
            "TANGENT": 32,
            "TEXCOORD_0": 34
          },
          "indices": 35,
          "material": 0,
          "mode": 4
        }
      ]
    },
    {
      "primitives": [
        {
          "attributes": {
            "COLOR_0": 39,
            "NORMAL": 37,
            "POSITION": 36,
            "TANGENT": 38,
            "TEXCOORD_0": 40
          },
          "indices": 41,
          "material": 0,
          "mode": 4
        }
      ]
    },
    {
      "primitives": [
        {
          "attributes": {
            "COLOR_0": 45,
            "NORMAL": 43,
            "POSITION": 42,
            "TANGENT": 44,
            "TEXCOORD_0": 46
          },
          "indices": 47,
          "material": 0,
          "mode": 4
        }
      ]
    },
    {
      "primitives": [
        {
          "attributes": {
            "COLOR_0": 51,
            "NORMAL": 49,
            "POSITION": 48,
            "TANGENT": 50,
            "TEXCOORD_0": 52
          },
          "indices": 53,
          "material": 0,
          "mode": 4
        }
      ]
    },
    {
      "primitives": [
        {
          "attributes": {
            "COLOR_0": 57,
            "NORMAL": 55,
            "POSITION": 54,
            "TANGENT": 56,
            "TEXCOORD_0": 58
          },
          "indices": 59,
          "material": 0,
          "mode": 4
        }
      ]
    }
  ],
  "nodes": [
    {
      "children": [
        1
      ],
      "name": "RootNode (gltf orientation matrix)",
      "rotation": [
        -0.70710678118654746,
        -0,
        -0,
        0.70710678118654757
      ]
    },
    {
      "children": [
        2
      ],
      "name": "RootNode (model correction matrix)"
    },
    {
      "children": [
        3
      ],
      "matrix": [
        1,
        0,
        0,
        0,
        0,
        0,
        1,
        0,
        0,
        -1,
        0,
        0,
        0,
        0,
        0,
        1
      ],
      "name": "15bdd75538914a0c9bb84a927e6f4322.wrl.cleaner.materialmerger.gles"
    },
    {
      "children": [
        4
      ],
      "name": "ShapeCylinder_953_TRANSFORM"
    },
    {
      "children": [
        5
      ],
      "matrix": [
        0.91839748620986938,
        0.18162289261817932,
        -0.35150992870330811,
        0,
        -0.18162289261817932,
        -0.59576189517974854,
        -0.78235632181167603,
        0,
        -0.35150992870330811,
        0.78235632181167603,
        -0.51415932178497314,
        0,
        0,
        0,
        0,
        1
      ],
      "name": ""
    },
    {
      "children": [
        6
      ],
      "name": "ShapeCylinder_953_ifs_TRANSFORM"
    },
    {
      "children": [
        7,
        8,
        9,
        10,
        11,
        12,
        13,
        14,
        15,
        16
      ],
      "name": "group_ME_ShapeCylinder_953"
    },
    {
      "mesh": 0,
      "name": ""
    },
    {
      "mesh": 1,
      "name": ""
    },
    {
      "mesh": 2,
      "name": ""
    },
    {
      "mesh": 3,
      "name": ""
    },
    {
      "mesh": 4,
      "name": ""
    },
    {
      "mesh": 5,
      "name": ""
    },
    {
      "mesh": 6,
      "name": ""
    },
    {
      "mesh": 7,
      "name": ""
    },
    {
      "mesh": 8,
      "name": ""
    },
    {
      "mesh": 9,
      "name": ""
    }
  ],
  "scene": 0,
  "scenes": [
    {
      "name": "OSG_Scene",
      "nodes": [
        0
      ]
    }
  ]
}

